<svg xmlns="http://www.w3.org/2000/svg" xmlns:xlink="http://www.w3.org/1999/xlink" width="500" height="500" viewBox="0 0 375 375" version="1.2"><defs><symbol overflow="visible" id="h"><path d="M11.594-3.14c.125 0 .222.058.297.171.07.106.109.258.109.453 0 .368-.094.657-.281.875-.524.637-1.031 1.086-1.531 1.344-.493.25-1.086.375-1.782.375-.492 0-.945-.062-1.36-.187a18.34 18.34 0 01-1.5-.547 20.939 20.939 0 00-1.359-.531c-.43.468-.82.796-1.171.984a2.264 2.264 0 01-1.094.281c-.524 0-.938-.117-1.25-.36a1.175 1.175 0 01-.453-.952c0-.29.093-.555.281-.797.195-.25.469-.442.813-.578.343-.145.75-.22 1.218-.22.258 0 .457.009.594.017a57.612 57.612 0 004.984-7.266 15.111 15.111 0 00-2.468-.203c-1.086 0-1.875.125-2.375.375s-.75.64-.75 1.172c0 .156.015.293.046.406.04.117.098.25.172.406.082.168.125.29.125.36 0 .187-.09.343-.265.468A.97.97 0 012-6.906a.843.843 0 01-.578-.203c-.18-.157-.324-.375-.438-.657a2.652 2.652 0 01-.156-.937c0-1.102.453-1.914 1.36-2.438.914-.53 2.124-.796 3.624-.796.739 0 1.493.042 2.266.124.781.086 1.508.22 2.188.407.28.086.468.195.562.328a.867.867 0 01.156.531c0 .25-.07.45-.203.594-.136.137-.32.203-.547.203h-.109a110.435 110.435 0 01-3.078 4.766C6.203-3.766 5.613-2.941 5.28-2.516c.54.125 1.016.243 1.422.344.5.137.899.235 1.203.297.301.055.567.078.797.078.55 0 1.02-.086 1.406-.266.383-.187.754-.484 1.11-.89a.5.5 0 01.375-.188zm0 0"/></symbol><symbol overflow="visible" id="i"><path d="M5.36.078c-.837 0-1.59-.187-2.266-.562-.668-.383-1.2-.942-1.594-1.672-.398-.727-.594-1.598-.594-2.61 0-1.425.258-2.687.781-3.78.52-1.095 1.227-1.938 2.125-2.532a5.283 5.283 0 012.985-.89c.844 0 1.598.187 2.266.562.675.375 1.21.93 1.609 1.656.394.73.594 1.605.594 2.625 0 1.43-.266 2.688-.797 3.781-.524 1.094-1.23 1.938-2.125 2.531a5.29 5.29 0 01-2.985.891zm.14-1.672c.738 0 1.383-.222 1.938-.672.562-.457.992-1.086 1.296-1.89.301-.801.454-1.711.454-2.735 0-1.113-.235-1.957-.704-2.53a2.24 2.24 0 00-1.828-.876c-.718 0-1.36.227-1.922.672-.554.45-.984 1.074-1.296 1.875-.305.805-.454 1.715-.454 2.734 0 1.125.235 1.98.704 2.563.468.574 1.07.86 1.812.86zm0 0"/></symbol><symbol overflow="visible" id="j"><path d="M3.266.078c-.344 0-.594-.078-.75-.234-.149-.157-.22-.453-.22-.89 0-.29.032-.661.095-1.11.062-.457.16-1.086.296-1.89a93.61 93.61 0 00.579-3.845c.093-.675.14-1.238.14-1.687 0-.426-.156-.64-.469-.64-.25 0-.546.124-.89.374s-.719.649-1.125 1.188c-.137.187-.281.281-.438.281a.454.454 0 01-.359-.188A.748.748 0 01-.015-9c0-.156.03-.305.093-.453.063-.156.16-.332.297-.531.457-.633.96-1.125 1.516-1.47.55-.343 1.109-.515 1.671-.515.508 0 .899.168 1.172.5.282.324.422.805.422 1.438a6.2 6.2 0 01-.078.89 16.58 16.58 0 01-.125.844 5.736 5.736 0 01-.078.453c.54-1.531 1.145-2.597 1.813-3.203.664-.613 1.398-.922 2.203-.922.613 0 1.093.219 1.437.656.352.43.531 1.04.531 1.829 0 .312-.043.699-.125 1.156.47-1.29 1.016-2.219 1.641-2.781.633-.57 1.363-.86 2.188-.86.656 0 1.16.215 1.515.64.352.43.531 1.024.531 1.782 0 .406-.062.906-.187 1.5L15.562-4a6.35 6.35 0 00-.14 1.203c0 .399.086.695.265.89.188.2.446.298.782.298.312 0 .613-.102.906-.313.29-.207.64-.55 1.047-1.031a.513.513 0 01.39-.188c.114 0 .208.059.282.172.07.106.11.258.11.453 0 .368-.09.657-.267.875-.492.594-.976 1.032-1.453 1.313-.48.273-.984.406-1.515.406-.805 0-1.43-.238-1.875-.719-.45-.476-.672-1.113-.672-1.906 0-.562.11-1.367.328-2.422l.578-2.578A5.85 5.85 0 0114.406-8c.051-.219.094-.422.125-.61a3.68 3.68 0 00.047-.578c0-.32-.07-.566-.203-.734a.635.635 0 00-.531-.25c-.45 0-.918.29-1.406.86-.481.562-.938 1.507-1.376 2.828C10.626-5.172 10.27-3.461 10-1.36c-.063.562-.18.945-.344 1.14-.168.2-.433.297-.797.297-.324 0-.558-.074-.703-.219-.148-.156-.219-.441-.219-.859 0-.383.051-.89.157-1.516.101-.625.238-1.363.406-2.218.426-2.27.64-3.735.64-4.391 0-.363-.07-.629-.203-.797-.136-.164-.34-.25-.609-.25-.46 0-.933.262-1.422.781-.492.524-.968 1.45-1.437 2.782C5-5.273 4.609-3.477 4.297-1.22c-.063.48-.156.82-.281 1.016-.125.187-.375.281-.75.281zm0 0"/></symbol><symbol overflow="visible" id="k"><path d="M4.61.11c-1.25 0-2.25-.235-3-.704C.86-1.07.483-1.8.483-2.78c0-.52.086-.914.266-1.188.176-.27.438-.406.781-.406.258 0 .469.07.625.203.164.125.25.293.25.5 0 .188-.015.356-.047.5 0 .031-.011.094-.03.188a2.433 2.433 0 00-.017.296c0 .43.211.747.641.954.426.21 1.024.312 1.797.312.8 0 1.426-.14 1.875-.422.457-.289.688-.695.688-1.218A1.2 1.2 0 007-3.891a2.712 2.712 0 00-.781-.578c-.313-.156-.75-.343-1.313-.562a15.663 15.663 0 01-1.765-.797 3.657 3.657 0 01-1.172-1.047c-.324-.438-.485-.984-.485-1.64 0-.676.176-1.274.532-1.797.363-.532.882-.942 1.562-1.235.688-.289 1.492-.437 2.422-.437.688 0 1.316.105 1.89.312.57.2 1.032.508 1.376.922.343.418.515.922.515 1.516 0 .593-.094 1.043-.281 1.343-.18.305-.438.454-.781.454a.872.872 0 01-.61-.22.72.72 0 01-.25-.546c0-.176.016-.336.047-.485.02-.28.032-.46.032-.546 0-.383-.196-.68-.579-.891-.386-.207-.867-.313-1.437-.313-.805 0-1.422.153-1.86.454-.43.293-.64.703-.64 1.234 0 .355.11.664.328.922.227.25.504.465.828.64.332.168.797.368 1.39.594.72.293 1.29.559 1.72.797.437.23.804.547 1.109.953.3.407.453.907.453 1.5 0 1.117-.422 1.969-1.266 2.563-.836.594-1.96.89-3.375.89zm0 0"/></symbol><symbol overflow="visible" id="l"><path d="M6.969-3.14c.125 0 .218.058.281.171.07.106.11.258.11.453 0 .375-.09.668-.266.875-.407.5-.852.914-1.328 1.235a2.863 2.863 0 01-1.641.484c-1.93 0-2.89-1.351-2.89-4.062 0-.407.015-.82.046-1.25H.734c-.28 0-.476-.051-.578-.157-.093-.101-.14-.27-.14-.5 0-.52.21-.78.64-.78h.797c.156-1.032.399-1.974.734-2.829.333-.863.727-1.547 1.188-2.047.469-.508.969-.765 1.5-.765.395 0 .707.18.938.53.226.345.343.778.343 1.298 0 1.46-.617 2.73-1.843 3.812H5.89c.156 0 .265.04.328.11.07.062.11.183.11.359 0 .648-.532.969-1.595.969H3c-.012.468-.016.836-.016 1.093 0 .98.114 1.668.344 2.063.227.398.594.594 1.094.594.394 0 .75-.118 1.062-.36.313-.25.68-.617 1.11-1.11a.5.5 0 01.375-.187zM4.5-10.97c-.137 0-.293.18-.469.531-.18.356-.343.844-.5 1.47a19.02 19.02 0 00-.39 2.077A4.663 4.663 0 004.39-8.5c.28-.594.421-1.133.421-1.625 0-.563-.105-.844-.312-.844zm0 0"/></symbol><symbol overflow="visible" id="m"><path d="M2.11.078c-.419 0-.762-.191-1.032-.578C.805-.895.672-1.383.672-1.969c0-.707.047-1.351.14-1.937.094-.594.25-1.219.47-1.875.093-.282.222-.485.39-.61.176-.125.445-.187.812-.187.207 0 .348.039.422.11.082.062.125.155.125.28 0 .086-.054.34-.156.766-.094.356-.168.672-.219.953-.187.992-.281 1.649-.281 1.969 0 .2.02.34.063.422.05.074.128.11.234.11.133 0 .305-.141.515-.423.22-.28.446-.707.688-1.28.238-.571.473-1.274.703-2.11.07-.282.188-.485.344-.61.156-.125.383-.187.687-.187.22 0 .368.027.454.078.082.055.125.152.125.297 0 .23-.118.871-.344 1.922-.262 1.21-.39 1.953-.39 2.234 0 .18.034.32.109.422a.35.35 0 00.296.14c.188 0 .407-.113.657-.343.257-.227.609-.602 1.046-1.125a.5.5 0 01.375-.188c.125 0 .223.059.297.172.07.106.11.258.11.453 0 .375-.09.668-.266.875-.406.5-.844.914-1.312 1.235-.47.324-1 .484-1.594.484-.45 0-.781-.172-1-.515-.211-.352-.313-.848-.313-1.485-.156.649-.398 1.14-.718 1.484-.313.344-.657.516-1.032.516zm0 0"/></symbol><symbol overflow="visible" id="n"><path d="M8.688-3.14a.34.34 0 01.296.171c.07.106.11.258.11.453 0 .375-.094.668-.281.875A7.438 7.438 0 017.546-.42c-.461.335-.914.5-1.36.5-.718 0-1.265-.423-1.64-1.266-.399.5-.746.84-1.047 1.015-.293.168-.637.25-1.031.25a1.8 1.8 0 01-1.422-.64C.68-1 .5-1.563.5-2.25c0-.75.156-1.445.469-2.094A4.285 4.285 0 012.28-5.922a3.866 3.866 0 011.89-.719c.177-1.82.516-3.379 1.016-4.671.508-1.301 1.176-1.954 2-1.954.395 0 .727.188 1 .563.27.367.407.918.407 1.656 0 1.055-.262 2.29-.781 3.703C7.3-5.937 6.612-4.488 5.75-3c.031.543.11.934.234 1.172.133.23.297.344.485.344.258 0 .52-.11.781-.329.258-.226.613-.609 1.063-1.14a.5.5 0 01.374-.188zM7.03-11.876c-.18 0-.36.32-.547.953-.18.637-.328 1.465-.453 2.485a48.93 48.93 0 00-.28 3.218c1.063-2.289 1.594-4.133 1.594-5.531 0-.352-.032-.629-.094-.828-.063-.195-.137-.297-.219-.297zM2.97-1.359c.176 0 .351-.07.531-.22.176-.144.398-.413.672-.812a9.29 9.29 0 01-.14-1.703c0-.226.007-.593.03-1.093-.523.156-.953.5-1.296 1.03A3.186 3.186 0 002.25-2.39c0 .688.238 1.032.719 1.032zm0 0"/></symbol><symbol overflow="visible" id="o"><path d="M2.531-7.5c-.398 0-.695-.094-.89-.281-.2-.188-.297-.442-.297-.766 0-.332.125-.61.375-.828.258-.219.582-.328.968-.328.352 0 .633.086.844.25.219.168.328.406.328.719 0 .375-.125.68-.375.906-.242.219-.558.328-.953.328zM2.406.078c-.605 0-1.047-.219-1.328-.656C.797-1.016.656-1.586.656-2.297c0-.426.051-.969.156-1.625a16.55 16.55 0 01.422-1.86c.094-.3.207-.507.344-.624.145-.114.367-.172.672-.172.488 0 .734.164.734.484 0 .23-.093.778-.28 1.64-.22 1.032-.329 1.731-.329 2.095 0 .28.035.5.11.656.07.148.195.219.374.219.176 0 .391-.114.641-.344.25-.238.586-.613 1.016-1.125a.5.5 0 01.375-.188c.125 0 .222.059.296.172.07.106.11.258.11.453 0 .375-.094.668-.281.875C4.086-.492 3.219.08 2.406.08zm0 0"/></symbol><symbol overflow="visible" id="p"><path d="M7.875-4.328c.125 0 .219.062.281.187a.952.952 0 01.094.454c0 .46-.137.73-.406.812a6.04 6.04 0 01-1.86.328c-.18.793-.53 1.43-1.062 1.906-.524.48-1.121.72-1.797.72-.563 0-1.043-.134-1.438-.407a2.69 2.69 0 01-.906-1.094A3.455 3.455 0 01.47-2.89c0-.718.133-1.351.406-1.906.27-.562.645-1 1.125-1.312a2.797 2.797 0 011.594-.485c.719 0 1.297.25 1.734.75.438.492.692 1.102.766 1.828a8.974 8.974 0 001.578-.28.78.78 0 01.203-.032zM3.25-1.422c.3 0 .563-.117.781-.36.219-.25.364-.6.438-1.062a1.92 1.92 0 01-.672-.781 2.291 2.291 0 01-.188-1.469h-.062c-.375 0-.688.184-.938.547-.25.367-.375.875-.375 1.531 0 .512.098.907.297 1.188.207.273.446.406.719.406zm0 0"/></symbol><symbol overflow="visible" id="q"><path d="M6.703-1.578a.55.55 0 01.453.203.75.75 0 01.157.484c0 .25-.079.477-.235.672a.776.776 0 01-.625.281c-.45 0-1.121-.039-2.016-.109-.18-.008-.507-.023-.984-.047A18.46 18.46 0 002.328-.14c-.125 0-.305.043-.531.125-.055.012-.149.032-.281.063-.137.039-.25.062-.344.062a.478.478 0 01-.39-.203C.686-.227.64-.43.64-.704c0-.3.07-.534.218-.702.145-.164.364-.313.657-.438a8.446 8.446 0 001.812-1.078c.57-.437 1.031-.91 1.375-1.422.344-.508.516-.992.516-1.453 0-.363-.086-.629-.25-.797-.168-.176-.43-.265-.782-.265-.417 0-.75.117-1 .343-.25.22-.374.532-.374.938 0 .555-.278.828-.829.828-.261 0-.464-.07-.609-.219-.148-.156-.219-.375-.219-.656 0-.469.117-.898.36-1.297.25-.394.617-.71 1.109-.953.488-.238 1.082-.36 1.781-.36.852 0 1.52.215 2 .641.477.418.719 1.008.719 1.766 0 .71-.313 1.453-.938 2.234-.625.781-1.527 1.477-2.703 2.078zm0 0"/></symbol><symbol overflow="visible" id="r"><path d="M3.61.078c-.919 0-1.633-.3-2.141-.906-.5-.602-.75-1.461-.75-2.578 0-.946.144-1.785.437-2.516.301-.726.719-1.297 1.25-1.703a2.949 2.949 0 011.844-.61c.926 0 1.64.305 2.14.907.5.605.75 1.465.75 2.578 0 .95-.152 1.79-.452 2.516-.293.73-.704 1.296-1.235 1.703-.523.406-1.137.61-1.844.61zm.14-1.594c.508 0 .91-.28 1.203-.843.29-.563.438-1.329.438-2.297 0-.645-.11-1.14-.329-1.485-.218-.343-.539-.515-.953-.515-.5 0-.898.289-1.187.86-.293.562-.438 1.327-.438 2.296 0 .656.102 1.152.313 1.484.207.336.523.5.953.5zm0 0"/></symbol><symbol overflow="visible" id="s"><path d="M2.766.078A.952.952 0 012.14-.14c-.18-.144-.266-.363-.266-.656l.016-.156c.101-.969.226-1.973.375-3.016.144-1.05.27-1.863.375-2.437l-1.11.312-.172.032a.495.495 0 01-.421-.204.868.868 0 01-.141-.484v-.125a.83.83 0 01.172-.438c.094-.113.273-.226.547-.343.27-.114.671-.235 1.203-.36l.594-.14c.218-.051.394-.078.53-.078.27 0 .473.074.61.218.145.137.219.336.219.594 0 .106-.016.227-.047.36-.156.73-.445 2.82-.86 6.265-.074.586-.406.875-1 .875zm0 0"/></symbol><clipPath id="a"><path d="M160 121.785h58V140h-58zm0 0"/></clipPath><clipPath id="b"><path d="M223 174h43.723v50H223zm0 0"/></clipPath><clipPath id="c"><path d="M108.473 144h158.25v26h-158.25zm0 0"/></clipPath><clipPath id="d"><path d="M108.473 174H152v50h-43.527zm0 0"/></clipPath><clipPath id="e"><path d="M108.473 227h158.25v26h-158.25zm0 0"/></clipPath><clipPath id="f"><path d="M37.5 37.5h300v102.75h-300zm0 0"/></clipPath><clipPath id="g"><path d="M36.238 234.516h300v102.75h-300zm0 0"/></clipPath></defs><path d="M143.09 137.566v2.375h-16.203v-2.375a4.611 4.611 0 01.36-1.797 4.648 4.648 0 011.02-1.52c.213-.218.452-.413.71-.581.257-.172.527-.316.812-.434a4.611 4.611 0 011.8-.359h6.798a4.611 4.611 0 011.8.36c.286.117.56.261.813.433.258.168.496.363.715.582.219.219.414.453.582.71a4.6 4.6 0 01.703 1.691c.063.302.09.607.09.915zm0 0" fill="#c0660c"/><g clip-path="url(#a)"><path d="M212.387 121.969h-47.2a4.648 4.648 0 00-1.797.355 5.263 5.263 0 00-.816.434 4.845 4.845 0 00-1.297 1.297 4.469 4.469 0 00-.433.808 4.907 4.907 0 00-.27.883c-.058.3-.09.606-.09.914v13.281h56.606v-13.28a4.77 4.77 0 00-.09-.915 4.907 4.907 0 00-.27-.883 4.469 4.469 0 00-.433-.808 4.845 4.845 0 00-1.297-1.297 5.092 5.092 0 00-.816-.434 4.648 4.648 0 00-1.797-.355zm-16.32 11.472h-14.56a2.938 2.938 0 01-2.722-1.816 2.918 2.918 0 01-.226-1.121c0-.39.078-.766.226-1.125.149-.363.363-.68.637-.953.277-.278.598-.488.957-.637a2.87 2.87 0 011.129-.227h14.558c.391 0 .77.075 1.13.227a2.912 2.912 0 011.593 1.59 2.905 2.905 0 010 2.246c-.148.363-.363.68-.637.953a2.938 2.938 0 01-2.086.863zm0 0" fill="#c0660c"/></g><g clip-path="url(#b)"><path d="M266.723 174.414v48.711h-43.176a43.114 43.114 0 003.242-5.594 43.902 43.902 0 002.367-6.015 43.536 43.536 0 001.442-6.301 42.9 42.9 0 00.484-6.445 42.9 42.9 0 00-.484-6.446 43.536 43.536 0 00-1.442-6.3 43.706 43.706 0 00-2.367-6.016 42.855 42.855 0 00-3.242-5.594zm0 0" fill="#c0660c"/></g><g clip-path="url(#c)"><path d="M262.02 144.629H113.23a4.898 4.898 0 00-1.812.379 4.71 4.71 0 00-.816.441 4.71 4.71 0 00-1.309 1.305 4.59 4.59 0 00-.445.816 4.986 4.986 0 00-.274.883 4.603 4.603 0 00-.101.926v20.285h46.968a44.143 44.143 0 013.211-3.187 44.091 44.091 0 013.528-2.836 43.15 43.15 0 013.8-2.453 43.994 43.994 0 014.04-2.047 43.563 43.563 0 018.61-2.781 43.113 43.113 0 014.472-.704 43.743 43.743 0 0113.523.703 43.49 43.49 0 014.375 1.168 44.248 44.248 0 014.23 1.614 43.5 43.5 0 0114.579 10.523h46.914V149.38a4.9 4.9 0 00-.09-.922 4.992 4.992 0 00-.266-.883 5.263 5.263 0 00-.433-.816 4.907 4.907 0 00-.586-.719 4.914 4.914 0 00-.711-.59 4.952 4.952 0 00-.813-.441 4.723 4.723 0 00-1.804-.38zm-31.73 13.508c-.392 0-.767-.075-1.126-.223a2.932 2.932 0 01-.957-.637 2.969 2.969 0 01-.64-.953 2.948 2.948 0 010-2.25c.152-.36.363-.68.64-.953.277-.277.594-.488.957-.637.36-.152.734-.226 1.125-.226.39 0 .77.074 1.129.226a2.912 2.912 0 011.594 1.59c.148.36.226.735.226 1.125a2.952 2.952 0 01-1.82 2.715 2.93 2.93 0 01-1.129.223zm24.194 0h-14.562c-.39 0-.766-.075-1.129-.223a2.957 2.957 0 01-1.594-1.59 2.948 2.948 0 010-2.25c.153-.36.363-.68.64-.953.278-.277.595-.488.954-.637a2.885 2.885 0 011.129-.226h14.562c.387.008.762.09 1.118.238a3 3 0 011.59 1.586c.152.356.23.73.238 1.117 0 .387-.075.762-.223 1.125a2.932 2.932 0 01-1.598 1.59 2.906 2.906 0 01-1.125.223zm0 0" fill="#c0660c"/></g><g clip-path="url(#d)"><path d="M144.168 198.77a42.615 42.615 0 001.918 12.746 42.672 42.672 0 005.617 11.609h-43.23v-48.71h43.23a42.504 42.504 0 00-5.625 11.605 42.49 42.49 0 00-1.91 12.75zm0 0" fill="#c0660c"/></g><g clip-path="url(#e)"><path d="M266.723 227.816v20.344a4.66 4.66 0 01-.36 1.797 4.468 4.468 0 01-.433.809 4.467 4.467 0 01-.586.71 4.648 4.648 0 01-.711.587 5.224 5.224 0 01-.813.433 4.686 4.686 0 01-1.8.356H113.23a4.812 4.812 0 01-1.809-.355 4.672 4.672 0 01-.816-.435 4.464 4.464 0 01-.718-.582 4.762 4.762 0 01-1.414-3.32v-20.344h46.968a44.25 44.25 0 003.207 3.2 43.107 43.107 0 0011.36 7.363 42.014 42.014 0 004.234 1.621c1.438.469 2.899.86 4.38 1.172 1.48.316 2.972.55 4.476.707a42.79 42.79 0 004.527.238c1.516 0 3.023-.078 4.527-.238 1.504-.156 3-.39 4.477-.707a42.298 42.298 0 004.379-1.172 43.535 43.535 0 008.273-3.672 44.186 44.186 0 003.801-2.465 43.164 43.164 0 006.727-6.047zm0 0" fill="#c0660c"/></g><path d="M203.492 174.414a28.837 28.837 0 00-3.414-1.894 29.005 29.005 0 00-7.43-2.352 29.48 29.48 0 00-7.789-.3 29.356 29.356 0 00-3.855.624c-1.27.297-2.516.676-3.734 1.137a29.096 29.096 0 00-3.551 1.625 28.95 28.95 0 00-3.301 2.082 29.065 29.065 0 00-7.848 8.586 29.582 29.582 0 00-1.773 3.469 29.938 29.938 0 00-1.293 3.675 29.533 29.533 0 00-.79 3.817 29.403 29.403 0 00-.269 3.887 29.185 29.185 0 00.915 7.152c.3 1.168.671 2.316 1.113 3.437a29.015 29.015 0 001.535 3.274 28.922 28.922 0 004.219 5.851 29.005 29.005 0 005.535 4.64 29.1 29.1 0 0011.683 4.388c1.387.203 2.782.3 4.18.3a28.77 28.77 0 004.18-.3c1.386-.2 2.75-.496 4.093-.895a29.148 29.148 0 0010.496-5.64 28.225 28.225 0 002.617-2.496 28.25 28.25 0 002.286-2.797c.351-.489.687-.989 1.008-1.5a28.045 28.045 0 001.726-3.172 27.42 27.42 0 00.711-1.66 31.45 31.45 0 00.61-1.7 30.18 30.18 0 00.886-3.496 27.815 27.815 0 00.449-3.582 27.844 27.844 0 000-3.61c-.035-.6-.093-1.198-.167-1.796a27.783 27.783 0 00-.282-1.785 30.18 30.18 0 00-.887-3.496 29.445 29.445 0 00-1.32-3.363 29.66 29.66 0 00-1.727-3.172 30.333 30.333 0 00-2.105-2.934 32.582 32.582 0 00-1.187-1.363c-.41-.442-.832-.871-1.27-1.285a28.96 28.96 0 00-4.25-3.356zm-15.867 48.711a24.506 24.506 0 01-9.344-1.852 26.118 26.118 0 01-2.168-1.023 23.797 23.797 0 01-2.054-1.23 24.465 24.465 0 01-1.926-1.422 24.71 24.71 0 01-3.383-3.375 24.495 24.495 0 01-1.43-1.922 23.732 23.732 0 01-1.23-2.051 24.281 24.281 0 01-1.028-2.16 24.487 24.487 0 01-1.738-6.934 24.348 24.348 0 011.738-11.707c.31-.738.649-1.457 1.028-2.16.375-.707.785-1.387 1.23-2.05a24.496 24.496 0 014.813-5.298 24.61 24.61 0 011.926-1.425 24.79 24.79 0 014.222-2.25 24.561 24.561 0 014.582-1.387 24.507 24.507 0 017.156-.348c.797.078 1.586.196 2.372.348a24.95 24.95 0 014.582 1.387c.738.304 1.46.648 2.164 1.023a24.163 24.163 0 013.98 2.652c.617.504 1.211 1.04 1.778 1.606a24.701 24.701 0 011.609 1.77c.508.617.98 1.257 1.426 1.921a24.173 24.173 0 013.066 6.461 24.357 24.357 0 01.582 11.82 24.568 24.568 0 01-.582 2.32 25.73 25.73 0 01-.809 2.25 24.248 24.248 0 01-3.683 6.134 25.57 25.57 0 01-1.61 1.77 25.639 25.639 0 01-1.777 1.605 23.76 23.76 0 01-1.926 1.422c-.664.445-1.347.855-2.054 1.23a25.3 25.3 0 01-2.164 1.023c-.743.305-1.493.57-2.258.805a23.9 23.9 0 01-2.324.578 24.258 24.258 0 01-4.766.469zm0 0" fill="#c0660c"/><path d="M207.625 198.77c0 .656-.031 1.308-.094 1.96a21.681 21.681 0 01-.289 1.946 20.463 20.463 0 01-1.145 3.754 18.77 18.77 0 01-.843 1.773 19.47 19.47 0 01-2.188 3.266 20.135 20.135 0 01-2.78 2.773 20.135 20.135 0 01-5.056 3.016 20.32 20.32 0 01-3.765 1.137 20.371 20.371 0 01-3.914.378 19.54 19.54 0 01-1.969-.097 20.086 20.086 0 01-5.71-1.434 19.933 19.933 0 01-5.048-3.027 19.397 19.397 0 01-1.457-1.32c-.465-.465-.906-.95-1.32-1.458a19.867 19.867 0 01-3.68-6.894 18.88 18.88 0 01-.476-1.906 19.215 19.215 0 01-.286-1.942 20.61 20.61 0 01-.093-1.965c0-.656.035-1.308.101-1.96.063-.653.16-1.301.293-1.942a19.68 19.68 0 011.996-5.527c.309-.578.649-1.14 1.016-1.684.363-.543.758-1.07 1.176-1.574a19.63 19.63 0 012.789-2.77 18.572 18.572 0 011.586-1.164 19.9 19.9 0 015.328-2.5 21.056 21.056 0 011.914-.472 20.361 20.361 0 013.914-.371c.656 0 1.313.03 1.965.093.652.067 1.3.16 1.945.29a19.989 19.989 0 018.797 4.16c.508.414.992.855 1.457 1.316a20.225 20.225 0 012.488 3.035c.364.543.7 1.106 1.004 1.684a19.597 19.597 0 011.496 3.621c.192.629.348 1.262.473 1.906.129.64.223 1.29.285 1.938.063.652.094 1.304.09 1.96zm0 0" fill="#c0660c"/><g clip-path="url(#f)"><path d="M331.129 229.395c-3.844 13.078-9.707 25.484-16.988 36.914-6.008 9.296-12.84 18.039-20.52 25.988-.992 1.086-2.101 2.058-3.152 3.082-1.074 1.008-2.114 2.047-3.211 3.031l-3.328 2.895-1.664 1.445-1.727 1.375-3.445 2.754c-1.168.89-2.371 1.734-3.555 2.61-2.336 1.788-4.824 3.363-7.262 5.019-.347.234-.718.48-1.101.742l-1.242.742c-.856.516-1.782 1.07-2.766 1.656-1.945 1.223-4.246 2.372-6.73 3.696-.625.32-1.254.672-1.915.988-.664.309-1.34.625-2.03.945a2662.93 2662.93 0 00-4.29 1.98c-3.027 1.184-6.183 2.606-9.625 3.708-13.594 4.93-30.555 7.973-47.578 8.047-17.02-.075-33.984-3.117-47.574-8.047-3.446-1.102-6.598-2.524-9.63-3.707a2580.93 2580.93 0 00-4.284-1.98l-2.035-.946c-.66-.312-1.286-.668-1.91-.988-2.485-1.32-4.79-2.473-6.731-3.696-.984-.586-1.91-1.14-2.77-1.656-.43-.254-.843-.504-1.238-.742-.387-.258-.754-.508-1.105-.742-9.246-6.059-17.934-12.945-25.832-20.676-8.329-8.32-15.61-17.64-22.032-27.523-7.28-11.426-13.144-23.836-16.988-36.914-3.996-13.036-5.848-26.715-5.965-40.395.117-13.68 1.969-27.36 5.965-40.395 3.844-13.078 9.707-25.484 16.988-36.914 6.008-9.296 12.84-18.039 20.52-25.988.992-1.086 2.098-2.058 3.152-3.082 1.074-1.008 2.114-2.047 3.211-3.031l3.328-2.895 1.664-1.449 1.727-1.371 3.445-2.754c1.168-.89 2.371-1.734 3.555-2.61 2.336-1.788 4.824-3.363 7.262-5.019.347-.234.718-.48 1.101-.742l1.242-.742c.856-.516 1.782-1.07 2.766-1.656 1.945-1.223 4.246-2.372 6.73-3.696.626-.32 1.254-.672 1.915-.988.664-.309 1.34-.625 2.03-.945a2662.93 2662.93 0 004.29-1.98c3.027-1.184 6.183-2.606 9.625-3.708 13.594-4.93 30.555-7.976 47.578-8.047 17.02.07 33.984 3.117 47.574 8.047 3.446 1.102 6.598 2.524 9.63 3.707 1.476.684 2.905 1.344 4.284 1.98l2.035.946c.66.312 1.286.668 1.91.988 2.485 1.32 4.79 2.473 6.731 3.696.984.586 1.91 1.14 2.77 1.656.43.254.843.504 1.238.742.387.258.754.508 1.105.742 9.246 6.059 17.934 12.946 25.832 20.676 8.329 8.32 15.61 17.64 22.032 27.523 7.28 11.426 13.144 23.836 16.988 36.914 3.996 13.036 5.848 26.715 5.965 40.395-.117 13.68-1.969 27.36-5.965 40.395zm9.371-40.497l-.004-.011c-.125-13.969-2.004-27.946-6.074-41.274-3.914-13.367-9.906-26.058-17.379-37.715l-3.594-5.398-2.597-3.629c-1.5-2.226-3.793-4.965-5.985-7.781-2.363-2.676-4.625-5.438-6.531-7.32-1.852-1.93-3.086-3.22-3.086-3.22s-.309-.316-.871-.859c-.563-.539-1.363-1.316-2.324-2.246-1.88-1.91-4.602-4.215-7.274-6.578-1.37-1.137-2.781-2.23-4.086-3.277-.656-.52-1.285-1.024-1.886-1.5-.622-.45-1.207-.875-1.754-1.266l-3.614-2.61s-.316-.253-.824-.585c-.508-.336-1.18-.785-1.851-1.238l-2.692-1.801-1.129-.762c-.406-.246-.828-.5-1.265-.766-.88-.53-1.825-1.097-2.828-1.699-1.989-1.254-4.344-2.437-6.883-3.793-.64-.328-1.281-.691-1.957-1.015-.68-.317-1.375-.64-2.078-.97-1.414-.651-2.88-1.331-4.391-2.03-3.094-1.22-6.324-2.668-9.848-3.805-13.91-5.05-31.277-8.184-48.695-8.25-17.418.066-34.785 3.2-48.695 8.25-3.524 1.137-6.754 2.586-9.852 3.805-1.512.699-2.973 1.379-4.387 2.03-.707.333-1.398.653-2.078.97-.675.324-1.316.687-1.957 1.015-2.543 1.356-4.894 2.54-6.883 3.793-1.007.602-1.949 1.172-2.828 1.7-.437.265-.863.519-1.265.765l-1.13.762-2.69 1.8c-.672.454-1.348.903-1.852 1.243-.508.328-.824.582-.824.582s-1.446 1.043-3.614 2.61c-.547.39-1.132.816-1.754 1.265-.601.476-1.23.98-1.886 1.5-1.305 1.047-2.715 2.14-4.086 3.277-2.672 2.363-5.395 4.668-7.274 6.578-.96.93-1.761 1.707-2.324 2.246-.562.543-.871.86-.871.86s-1.234 1.289-3.086 3.219c-1.906 1.882-4.168 4.644-6.531 7.32-2.192 2.816-4.488 5.558-5.985 7.781l-2.597 3.629-3.594 5.398c-7.473 11.657-13.465 24.348-17.379 37.715-4.07 13.328-5.95 27.305-6.074 41.274l-.004.011v.204l.004.011c.125 13.969 2.004 27.946 6.074 41.274 3.914 13.367 9.906 26.058 17.379 37.715l3.594 5.398 2.597 3.629c1.5 2.226 3.793 4.965 5.985 7.781 2.363 2.676 4.625 5.438 6.531 7.32 1.852 1.93 3.086 3.22 3.086 3.22s.309.316.871.859c.563.539 1.363 1.316 2.324 2.246 1.88 1.91 4.602 4.215 7.274 6.578 1.37 1.137 2.781 2.23 4.086 3.277.656.52 1.285 1.024 1.886 1.5.621.45 1.207.875 1.754 1.266l3.614 2.61s.316.253.824.581c.508.34 1.18.79 1.851 1.242l2.692 1.801 1.129.762 1.265.765c.88.532 1.825 1.098 2.828 1.7 1.989 1.254 4.344 2.437 6.883 3.793.64.328 1.281.691 1.957 1.015.68.317 1.375.64 2.078.97 1.414.651 2.88 1.331 4.391 2.03 3.094 1.22 6.324 2.668 9.848 3.805 13.91 5.05 31.277 8.18 48.695 8.25 17.418-.07 34.785-3.2 48.695-8.25 3.524-1.137 6.754-2.586 9.852-3.805 1.512-.699 2.973-1.379 4.387-2.03.707-.333 1.398-.653 2.078-.97.675-.324 1.316-.687 1.957-1.015 2.543-1.356 4.894-2.54 6.883-3.793l2.828-1.7c.437-.265.863-.519 1.265-.765l1.13-.762 2.69-1.8c.673-.454 1.348-.903 1.852-1.243.508-.328.824-.582.824-.582s1.446-1.043 3.614-2.61c.547-.39 1.132-.816 1.754-1.265.601-.476 1.23-.98 1.886-1.5 1.305-1.047 2.715-2.14 4.086-3.277 2.672-2.363 5.395-4.668 7.274-6.578.96-.93 1.761-1.707 2.324-2.246.562-.543.871-.86.871-.86s1.234-1.289 3.086-3.219c1.906-1.882 4.168-4.644 6.531-7.32 2.192-2.816 4.488-5.558 5.985-7.781 1.558-2.18 2.597-3.629 2.597-3.629l3.594-5.398c7.473-11.657 13.465-24.348 17.379-37.715 4.07-13.328 5.95-27.305 6.074-41.274l.004-.011v-.204" fill="#c0660c"/></g><g clip-path="url(#g)"><path d="M329.867 145.605c-3.844-13.078-9.707-25.488-16.988-36.914-6.008-9.3-12.84-18.039-20.52-25.988-.992-1.086-2.101-2.058-3.152-3.086-1.074-1.004-2.117-2.047-3.21-3.027l-3.329-2.895-1.664-1.449-1.727-1.371-3.445-2.754c-1.168-.89-2.371-1.734-3.555-2.61-2.34-1.788-4.824-3.363-7.261-5.019l-1.102-.742c-.398-.238-.809-.484-1.242-.746-.86-.512-1.781-1.066-2.766-1.652-1.945-1.223-4.25-2.375-6.73-3.696-.63-.32-1.254-.672-1.914-.988-.664-.313-1.344-.625-2.032-.945-1.382-.637-2.812-1.301-4.289-1.98-3.027-1.184-6.183-2.606-9.629-3.708-13.59-4.93-30.55-7.976-47.574-8.047-17.023.07-33.984 3.117-47.574 8.047-3.445 1.102-6.601 2.524-9.629 3.707-1.476.68-2.906 1.344-4.285 1.98-.691.321-1.371.633-2.035.942-.66.316-1.285.672-1.91.992-2.485 1.32-4.79 2.473-6.735 3.692-.984.59-1.906 1.144-2.765 1.656l-1.239.746c-.386.258-.754.504-1.105.742-9.246 6.059-17.934 12.942-25.832 20.676-8.328 8.32-15.61 17.64-22.031 27.52-7.282 11.43-13.145 23.84-16.989 36.917-3.996 13.032-5.847 26.711-5.968 40.395.12 13.68 1.972 27.36 5.968 40.395 3.844 13.078 9.707 25.484 16.989 36.914 6.007 9.296 12.84 18.039 20.52 25.988.991 1.086 2.097 2.058 3.152 3.082 1.074 1.008 2.113 2.047 3.21 3.027l3.329 2.895 1.664 1.453 1.726 1.367 3.446 2.754c1.168.895 2.37 1.738 3.554 2.613 2.336 1.79 4.824 3.364 7.262 5.016.348.238.719.484 1.102.742.398.238.808.488 1.238.746.86.516 1.785 1.067 2.77 1.656 1.945 1.223 4.245 2.372 6.73 3.692.625.324 1.254.676 1.914.992.664.309 1.34.625 2.031.945 1.383.637 2.813 1.297 4.29 1.98 3.026 1.184 6.183 2.602 9.624 3.708 13.594 4.926 30.555 7.973 47.578 8.043 17.02-.07 33.985-3.117 47.575-8.043 3.445-1.106 6.597-2.524 9.628-3.707 1.477-.684 2.907-1.344 4.286-1.98l2.035-.946c.66-.316 1.285-.668 1.91-.992 2.484-1.32 4.789-2.469 6.73-3.692.985-.59 1.91-1.14 2.77-1.656.43-.258.844-.504 1.238-.746.387-.254.754-.504 1.106-.738 9.246-6.063 17.933-12.945 25.832-20.676 8.328-8.32 15.609-17.64 22.03-27.523 7.282-11.43 13.145-23.836 16.99-36.914 3.995-13.036 5.847-26.715 5.964-40.395-.117-13.684-1.969-27.363-5.965-40.395zm9.371 40.493l-.004.015c-.125 13.969-2.004 27.946-6.074 41.274-3.914 13.367-9.906 26.058-17.383 37.71l-3.59 5.403-2.597 3.629c-1.5 2.223-3.793 4.965-5.985 7.781-2.363 2.672-4.625 5.434-6.53 7.317-1.852 1.933-3.087 3.218-3.087 3.218s-.308.32-.87.86c-.563.543-1.364 1.32-2.325 2.246-1.879 1.914-4.602 4.215-7.273 6.578-1.372 1.14-2.782 2.23-4.086 3.281-.657.52-1.29 1.024-1.887 1.5-.621.45-1.211.871-1.754 1.262l-3.613 2.61s-.317.257-.825.59c-.507.335-1.18.784-1.851 1.233-1.344.903-2.692 1.805-2.692 1.805l-1.128.762-1.266.765c-.879.528-1.824 1.094-2.828 1.7-1.988 1.254-4.344 2.437-6.883 3.789-.64.332-1.281.695-1.957 1.02l-2.078.968c-1.414.652-2.879 1.332-4.39 2.031-3.095 1.22-6.325 2.668-9.848 3.805-13.91 5.05-31.278 8.18-48.696 8.25-17.418-.07-34.785-3.2-48.695-8.254-3.523-1.133-6.754-2.586-9.852-3.8-1.511-.7-2.972-1.38-4.386-2.036-.707-.328-1.399-.652-2.078-.965-.676-.324-1.32-.687-1.957-1.02-2.543-1.35-4.895-2.534-6.883-3.788-1.008-.606-1.95-1.172-2.832-1.7-.434-.265-.86-.523-1.262-.765l-1.129-.762s-1.348-.902-2.691-1.805c-.676-.449-1.348-.898-1.852-1.238-.508-.328-.824-.586-.824-.586l-3.617-2.61c-.543-.39-1.13-.812-1.75-1.26-.602-.477-1.23-.981-1.887-1.5-1.305-1.052-2.715-2.141-4.086-3.282-2.672-2.363-5.394-4.664-7.273-6.578-.961-.926-1.762-1.703-2.325-2.246-.562-.54-.875-.86-.875-.86l-3.082-3.218c-1.906-1.883-4.168-4.645-6.53-7.317-2.192-2.816-4.49-5.558-5.985-7.781l-2.598-3.633-3.594-5.398c-7.472-11.653-13.465-24.344-17.379-37.711-4.07-13.328-5.949-27.309-6.074-41.278l-.004-.011v-.2l.004-.011c.125-13.969 2.004-27.95 6.074-41.274 3.914-13.37 9.907-26.058 17.38-37.715l3.593-5.398 2.598-3.633c1.496-2.222 3.793-4.96 5.984-7.777 2.363-2.676 4.625-5.438 6.531-7.32 1.852-1.93 3.082-3.22 3.082-3.22s.313-.32.875-.859c.563-.543 1.364-1.316 2.325-2.246 1.879-1.91 4.601-4.215 7.273-6.578 1.371-1.14 2.781-2.23 4.086-3.277l1.887-1.504c.62-.445 1.207-.871 1.75-1.262 2.172-1.566 3.617-2.61 3.617-2.61s.316-.257.824-.585c.508-.336 1.18-.79 1.852-1.238 1.343-.903 2.691-1.801 2.691-1.801.36-.242.734-.5 1.129-.762.406-.246.828-.504 1.266-.766.879-.53 1.824-1.097 2.828-1.703 1.988-1.25 4.343-2.433 6.883-3.789.64-.332 1.28-.691 1.957-1.015.68-.317 1.375-.64 2.078-.97 1.414-.655 2.879-1.331 4.386-2.034 3.098-1.215 6.329-2.668 9.852-3.801 13.91-5.05 31.277-8.18 48.695-8.25 17.418.07 34.785 3.2 48.696 8.25 3.523 1.133 6.754 2.586 9.851 3.805 1.508.699 2.973 1.375 4.387 2.03l2.078.97c.676.324 1.316.683 1.957 1.015 2.543 1.356 4.895 2.54 6.883 3.79l2.828 1.703c.437.261.863.519 1.266.765l1.128.762s1.348.898 2.692 1.8l1.851 1.239c.508.328.825.586.825.586l3.613 2.61c.543.39 1.133.816 1.754 1.26.598.481 1.23.981 1.887 1.505 1.304 1.047 2.714 2.137 4.086 3.277 2.671 2.363 5.394 4.668 7.273 6.578.96.93 1.762 1.703 2.324 2.246.563.54.871.86.871.86l3.086 3.219c1.906 1.882 4.168 4.644 6.531 7.32 2.192 2.816 4.489 5.555 5.985 7.777l2.598 3.633 3.59 5.398c7.476 11.657 13.468 24.348 17.382 37.715 4.07 13.328 5.95 27.305 6.074 41.274l.004.011v.2" fill="#c0660c"/></g><use xlink:href="#h" x="25.164" y="188.56" fill="#c0660c"/><use xlink:href="#i" x="38.56" y="188.56" fill="#c0660c"/><use xlink:href="#i" x="53.295" y="188.56" fill="#c0660c"/><use xlink:href="#j" x="68.03" y="188.56" fill="#c0660c"/><use xlink:href="#k" x="27.754" y="205.06" fill="#c0660c"/><use xlink:href="#l" x="40.755" y="205.06" fill="#c0660c"/><use xlink:href="#m" x="49.527" y="205.06" fill="#c0660c"/><use xlink:href="#n" x="59.271" y="205.06" fill="#c0660c"/><use xlink:href="#o" x="69.762" y="205.06" fill="#c0660c"/><use xlink:href="#p" x="76.461" y="205.06" fill="#c0660c"/><use xlink:href="#q" x="317.831" y="188.56" fill="#c0660c"/><use xlink:href="#r" x="328.948" y="188.56" fill="#c0660c"/><use xlink:href="#q" x="319.002" y="204.31" fill="#c0660c"/><use xlink:href="#s" x="330.119" y="204.31" fill="#c0660c"/></svg>